<svg xmlns="http://www.w3.org/2000/svg" viewBox="0 0 32 32">
  <circle cx="16" cy="16" r="16" fill="black" />
  <text x="50%" y="38%" dominant-baseline="middle" text-anchor="middle" fill="white" font-family="Arial, sans-serif" font-weight="bold" font-size="7">ART</text>
  <text x="50%" y="65%" dominant-baseline="middle" text-anchor="middle" fill="white" font-family="Arial, sans-serif" font-weight="bold" font-size="5">FORESTA</text>
  <path d="M24 10c-1 0-2 1-2 2s1 2 2 2 2-1 2-2-1-2-2-2zm-1 2c0-.5.5-1 1-1s1 .5 1 1-.5 1-1 1-1-.5-1-1z" fill="white" opacity="0.8"/>
  <path d="M22 14c0 1 1 2 2 2s2-1 2-2-1-2-2-2-2 1-2 2zm1 0c0-.5.5-1 1-1s1 .5 1 1-.5 1-1 1-1-.5-1-1z" fill="white" opacity="0.6"/>
</svg>
